<svg width="33" height="32" viewBox="0 0 33 32" fill="none" xmlns="http://www.w3.org/2000/svg">
<path d="M20.6938 6.66665C22.0368 6.92073 23.271 7.55766 24.2386 8.49589C25.2061 9.43413 25.863 10.631 26.125 11.9333M20.6938 1.33331C23.484 1.63389 26.0859 2.84555 28.0723 4.76932C30.0587 6.6931 31.3115 9.21466 31.625 11.92M30.25 22.56V26.56C30.2516 26.9313 30.1731 27.2989 30.0197 27.6391C29.8663 27.9793 29.6413 28.2848 29.3591 28.5358C29.0769 28.7868 28.7438 28.978 28.381 29.0969C28.0183 29.2159 27.6339 29.2601 27.2525 29.2266C23.0214 28.7808 18.9571 27.3788 15.3862 25.1333C12.064 23.0862 9.24734 20.3549 7.13625 17.1333C4.81247 13.6549 3.36633 9.69464 2.915 5.57331C2.88064 5.2046 2.92583 4.83299 3.04769 4.48215C3.16955 4.1313 3.36541 3.8089 3.6228 3.53547C3.8802 3.26205 4.19348 3.04359 4.54271 2.89401C4.89194 2.74443 5.26947 2.667 5.65125 2.66665H9.77625C10.4435 2.66028 11.0905 2.88942 11.5964 3.31136C12.1024 3.7333 12.4329 4.31924 12.5262 4.95998C12.7004 6.24007 13.0232 7.49695 13.4888 8.70665C13.6737 9.18388 13.7138 9.70253 13.6041 10.2012C13.4945 10.6998 13.2397 11.1575 12.87 11.52L11.1237 13.2133C13.0811 16.5514 15.9314 19.3152 19.3737 21.2133L21.12 19.52C21.4938 19.1615 21.9658 18.9144 22.48 18.8081C22.9942 18.7018 23.5291 18.7406 24.0212 18.92C25.2687 19.3714 26.5649 19.6845 27.885 19.8533C28.5529 19.9447 29.1629 20.2709 29.599 20.77C30.035 21.269 30.2667 21.9061 30.25 22.56Z" stroke="black" stroke-opacity="0.32" stroke-width="2" stroke-linecap="round" stroke-linejoin="round"/>
</svg>
