<svg width="33" height="32" viewBox="0 0 33 32" fill="none" xmlns="http://www.w3.org/2000/svg">
<path d="M23.375 2.66669H9.625C5.82804 2.66669 2.75 5.65146 2.75 9.33335V22.6667C2.75 26.3486 5.82804 29.3334 9.625 29.3334H23.375C27.172 29.3334 30.25 26.3486 30.25 22.6667V9.33335C30.25 5.65146 27.172 2.66669 23.375 2.66669Z" stroke="black" stroke-opacity="0.32" stroke-width="2" stroke-linecap="round" stroke-linejoin="round"/>
<path d="M22 15.16C22.1697 16.2696 21.9742 17.4029 21.4414 18.3987C20.9086 19.3944 20.0656 20.2019 19.0322 20.7062C17.9989 21.2106 16.8279 21.3861 15.6857 21.2079C14.5435 21.0297 13.4884 20.5068 12.6704 19.7135C11.8524 18.9203 11.3131 17.8971 11.1293 16.7896C10.9455 15.682 11.1266 14.5465 11.6467 13.5445C12.1668 12.5424 12.9995 11.725 14.0263 11.2083C15.0532 10.6916 16.2219 10.5021 17.3662 10.6666C18.5335 10.8345 19.6142 11.3619 20.4486 12.1711C21.283 12.9802 21.8269 14.0281 22 15.16Z" stroke="black" stroke-opacity="0.32" stroke-width="2" stroke-linecap="round" stroke-linejoin="round"/>
<path d="M24.0625 8.66669H24.0754" stroke="black" stroke-opacity="0.32" stroke-width="2" stroke-linecap="round" stroke-linejoin="round"/>
</svg>
