<svg width="33" height="32" viewBox="0 0 33 32" fill="none" xmlns="http://www.w3.org/2000/svg">
<path d="M30.9925 8.55998C30.8292 7.92719 30.4965 7.34741 30.0281 6.87919C29.5598 6.41097 28.9723 6.07089 28.325 5.89331C25.96 5.33331 16.5 5.33331 16.5 5.33331C16.5 5.33331 7.04 5.33331 4.675 5.94665C4.02772 6.12423 3.44022 6.4643 2.97185 6.93252C2.50348 7.40074 2.17083 7.98053 2.0075 8.61331C1.57467 10.9407 1.36295 13.3017 1.375 15.6666C1.35957 18.0494 1.57131 20.4284 2.0075 22.7733C2.18757 23.3864 2.52767 23.9442 2.99495 24.3926C3.46222 24.8411 4.04088 25.1651 4.675 25.3333C7.04 25.9466 16.5 25.9466 16.5 25.9466C16.5 25.9466 25.96 25.9466 28.325 25.3333C28.9723 25.1557 29.5598 24.8157 30.0281 24.3474C30.4965 23.8792 30.8292 23.2994 30.9925 22.6666C31.422 20.3568 31.6337 18.0138 31.625 15.6666C31.6404 13.2839 31.4287 10.9049 30.9925 8.55998Z" stroke="black" stroke-opacity="0.32" stroke-width="2" stroke-linecap="round" stroke-linejoin="round"/>
<path d="M13.4062 20.0266L21.3125 15.6666L13.4062 11.3066V20.0266Z" stroke="black" stroke-opacity="0.32" stroke-width="2" stroke-linecap="round" stroke-linejoin="round"/>
</svg>
