<svg width="33" height="32" viewBox="0 0 33 32" fill="none" xmlns="http://www.w3.org/2000/svg">
<path d="M31.625 3.99998C30.3083 4.90062 28.8504 5.58946 27.3075 6.03998C26.4794 5.11666 25.3788 4.46224 24.1547 4.16521C22.9305 3.86819 21.6418 3.94291 20.4629 4.37925C19.2839 4.81559 18.2716 5.59252 17.5629 6.60494C16.8541 7.61736 16.4831 8.81643 16.5 10.04V11.3733C14.0836 11.4341 11.6893 10.9144 9.53014 9.86057C7.37102 8.80675 5.51419 7.25149 4.125 5.33331C4.125 5.33331 -1.375 17.3333 11 22.6666C8.16823 24.5306 4.79484 25.4652 1.375 25.3333C13.75 32 28.875 25.3333 28.875 9.99998C28.8737 9.62858 28.8369 9.25811 28.765 8.89331C30.1683 7.5513 31.1586 5.85693 31.625 3.99998Z" stroke="black" stroke-opacity="0.32" stroke-width="2" stroke-linecap="round" stroke-linejoin="round"/>
</svg>
